<?xml version="1.0" standalone="no"?>
<!DOCTYPE svg PUBLIC "-//W3C//DTD SVG 20010904//EN"
 "http://www.w3.org/TR/2001/REC-SVG-20010904/DTD/svg10.dtd">
<svg version="1.0" xmlns="http://www.w3.org/2000/svg"
 width="700.000000pt" height="700.000000pt" viewBox="0 0 700.000000 700.000000"
 preserveAspectRatio="xMidYMid meet">
<metadata>
Created by potrace 1.14, written by Peter Selinger 2001-2017
</metadata>
<g transform="translate(0.000000,700.000000) scale(0.100000,-0.100000)"
fill="#000000" stroke="none">
<path d="M1873 6984 c-83 -21 -133 -52 -200 -121 -120 -126 -179 -284 -208
-558 -7 -64 -7 -314 0 -380 2 -22 7 -69 10 -105 6 -62 9 -85 20 -167 6 -43 28
-169 40 -236 5 -22 44 -196 70 -307 2 -8 22 -85 44 -171 23 -85 41 -163 41
-172 0 -10 -11 -19 -27 -23 -671 -159 -1169 -386 -1439 -658 -164 -166 -226
-305 -220 -491 5 -159 61 -275 209 -431 73 -77 269 -234 292 -234 3 0 23 -11
45 -25 124 -78 417 -207 645 -283 103 -35 317 -96 373 -107 21 -4 102 -24 119
-30 8 -3 1 -43 -24 -137 -55 -207 -122 -496 -137 -588 -3 -19 -8 -46 -11 -60
-16 -81 -15 -78 -40 -277 -29 -245 -21 -516 21 -703 103 -455 421 -600 859
-391 314 149 627 418 1051 901 17 19 46 52 65 73 l34 38 43 -52 c163 -201 456
-502 633 -650 198 -167 433 -311 592 -363 133 -44 267 -52 367 -23 71 21 165
81 214 138 80 93 155 290 174 459 9 86 9 462 -1 570 -8 92 -24 201 -42 290 -2
13 -7 42 -10 65 -4 22 -10 56 -15 75 -5 19 -11 49 -14 65 -6 31 -63 262 -110
440 -14 55 -26 107 -26 115 0 12 21 21 78 34 439 103 875 274 1152 455 238
154 415 372 449 551 17 95 8 216 -24 295 -147 367 -638 669 -1450 890 -71 20
-147 38 -168 42 -21 3 -41 11 -43 18 -3 6 7 52 21 101 54 185 133 519 159 669
15 88 36 240 43 310 9 103 10 463 1 535 -30 228 -95 388 -204 498 -187 188
-464 173 -829 -46 -62 -37 -270 -188 -303 -219 -10 -10 -52 -47 -92 -83 -135
-118 -373 -365 -513 -531 -45 -54 -84 -98 -87 -98 -3 -1 -27 25 -54 57 -492
587 -954 953 -1304 1033 -74 17 -211 18 -269 3z m214 -69 c229 -29 550 -230
882 -551 l95 -92 -65 0 c-89 0 -169 -36 -197 -89 -48 -89 60 -183 209 -183 66
0 152 34 185 73 l26 31 42 -46 c22 -25 52 -59 65 -74 14 -16 48 -56 77 -90
l53 -60 -79 -105 c-44 -57 -83 -105 -87 -106 -5 -2 -29 39 -55 91 l-47 93 -58
2 c-32 2 -77 4 -100 5 -26 2 -43 -2 -44 -8 -1 -6 -2 -22 -4 -36 -4 -41 -14
-169 -21 -254 -3 -44 -8 -89 -10 -100 -2 -12 -7 -35 -10 -53 -3 -17 -13 -38
-22 -46 -30 -25 -239 -100 -254 -91 -8 5 -68 52 -133 105 -183 145 -239 182
-275 181 -18 0 -34 -3 -37 -5 -8 -8 -7 -60 0 -102 8 -39 95 -320 143 -460 25
-73 22 -84 -21 -86 -26 -1 -105 -11 -255 -34 -84 -13 -236 -40 -286 -50 -30
-7 -32 -5 -48 36 -62 170 -152 570 -212 941 -3 18 -6 155 -8 303 -4 238 1 338
17 410 65 282 174 418 360 449 70 12 86 12 174 1z m3008 0 c68 -9 137 -48 199
-115 144 -157 202 -454 172 -895 -4 -60 -9 -117 -11 -125 -2 -8 -7 -39 -10
-69 -4 -30 -8 -61 -10 -70 -1 -9 -6 -38 -9 -65 -4 -27 -9 -53 -11 -56 -3 -4
-6 -22 -9 -41 -3 -29 -29 -157 -42 -211 -2 -10 -6 -26 -8 -35 -41 -178 -114
-434 -129 -451 -10 -13 -26 -12 -122 5 -16 3 -39 7 -50 8 -11 2 -45 8 -75 14
-30 6 -68 13 -85 15 -16 3 -43 7 -60 10 -50 9 -169 26 -181 26 -7 0 10 66 44
168 127 382 141 462 85 483 -20 7 -33 4 -68 -20 -62 -42 -109 -75 -115 -81 -3
-3 -25 -21 -50 -40 -25 -19 -47 -37 -50 -40 -3 -3 -21 -17 -42 -32 -20 -15
-42 -34 -50 -41 -39 -40 -51 -39 -178 10 -132 51 -135 54 -146 137 -10 77 -13
111 -20 206 -4 52 -8 106 -9 120 -2 14 -3 37 -4 51 -1 25 -3 26 -68 28 -38 2
-84 4 -104 5 l-37 2 -53 -113 c-29 -62 -56 -113 -60 -113 -5 0 -150 191 -172
227 -8 14 12 46 59 98 11 11 35 40 55 65 20 25 52 62 70 83 l34 38 41 -38 c95
-91 252 -86 363 11 56 50 43 104 -39 156 -55 35 -102 48 -159 44 l-44 -3 74
76 c287 291 684 543 899 570 25 3 46 6 47 7 4 3 87 -2 138 -9z m-1574 -1167
c43 -51 169 -226 169 -236 0 -15 -60 -127 -85 -158 -24 -30 -90 -45 -141 -32
-26 7 -38 22 -85 113 -48 93 -52 107 -41 125 25 41 153 210 158 210 3 0 14
-10 25 -22z m-1089 -990 c2 -5 64 -12 138 -15 74 -3 137 -7 139 -9 2 -1 -17
-36 -41 -76 l-44 -73 -75 -2 c-41 0 -77 -2 -80 -2 -4 -1 -7 -68 -7 -150 0
-144 -1 -152 -27 -200 l-27 -50 -86 117 c-47 64 -112 154 -145 200 -48 64 -66
82 -86 83 -14 1 -80 2 -146 3 l-119 1 -13 43 c-20 69 -16 72 94 92 89 16 103
18 148 24 22 4 51 8 65 11 25 4 56 9 142 20 25 4 68 10 95 14 47 7 65 0 75
-31z m2308 17 c57 -8 62 -9 260 -40 91 -14 175 -30 187 -35 21 -9 21 -10 -33
-167 -30 -87 -75 -213 -101 -280 l-46 -122 -36 57 c-65 105 -133 166 -291 264
-41 25 -86 56 -100 68 -38 34 -84 50 -142 50 -51 0 -54 1 -80 43 -27 44 -68
116 -68 120 0 2 68 3 152 2 l151 -1 11 29 c10 26 14 28 51 23 22 -3 60 -8 85
-11z m-530 -51 c6 -6 28 -41 50 -77 l39 -67 -27 -1 c-15 0 -88 1 -162 2 -74 0
-420 1 -767 2 -348 0 -633 3 -633 5 0 3 18 37 40 77 l40 72 705 -1 c483 -1
708 -5 715 -12z m-2474 -79 c23 -55 19 -64 -25 -61 -77 6 -75 1 81 -214 64
-87 86 -129 131 -245 30 -77 89 -223 132 -324 l76 -183 -25 -62 c-13 -33 -48
-117 -77 -186 -52 -126 -148 -367 -153 -385 -2 -5 -8 -23 -15 -40 -7 -16 -34
-93 -60 -170 -72 -209 -75 -215 -109 -215 -36 0 -236 54 -447 121 -606 193
-998 449 -1137 744 -30 65 -33 78 -34 178 -1 128 19 198 84 292 218 313 662
552 1376 741 89 23 167 42 174 43 7 1 20 -15 28 -34z m3719 -6 c358 -90 775
-252 985 -383 455 -283 599 -597 413 -904 -189 -311 -669 -572 -1394 -756
l-174 -45 -13 25 c-7 13 -26 63 -42 111 -35 108 -79 231 -90 258 -5 11 -32 82
-61 157 l-52 137 22 51 c35 80 49 176 49 337 0 160 -8 243 -37 351 -10 38 -15
76 -11 83 8 15 124 326 186 502 l39 109 50 -7 c27 -3 86 -15 130 -26z m-2181
-924 c-1 -459 -4 -627 -12 -657 -4 -18 -5 -18 -24 -1 -24 21 -126 158 -342
458 -18 25 -30 40 -259 354 -102 140 -184 257 -182 261 2 4 188 6 412 6 l408
-1 -1 -420z m923 409 c127 -10 159 -17 232 -52 103 -49 183 -156 219 -292 2
-8 5 -64 7 -125 11 -327 -126 -521 -400 -569 -82 -15 -489 -29 -522 -18 -8 2
-11 140 -11 539 l0 535 206 -7 c114 -3 235 -8 269 -11z m-2073 -207 c47 -65
86 -123 86 -130 -1 -7 -9 -28 -20 -47 l-19 -35 -34 75 c-53 115 -119 276 -108
265 5 -6 48 -63 95 -128z m414 -572 c50 -72 99 -145 109 -163 17 -32 17 -33
-7 -80 -47 -88 -91 -157 -98 -152 -16 11 -332 642 -332 664 0 2 12 29 26 60
l26 57 92 -128 c51 -71 134 -187 184 -258z m-255 -42 c59 -120 132 -264 162
-321 30 -56 55 -107 55 -113 0 -6 -32 -66 -72 -133 -39 -66 -77 -130 -82 -141
-6 -11 -27 -46 -46 -78 l-35 -58 -55 6 c-61 7 -102 13 -140 20 -14 3 -41 7
-60 10 -165 26 -210 38 -210 55 0 62 346 970 370 970 3 0 54 -98 113 -217z
m2862 -575 c35 -103 60 -190 55 -193 -5 -3 -103 -21 -217 -40 -114 -20 -213
-37 -220 -40 -7 -2 -21 8 -31 23 -28 41 -162 288 -162 300 0 6 21 23 48 38
136 80 239 171 320 283 l45 63 49 -123 c27 -68 77 -208 113 -311z m-1965 -78
l97 -95 -1 -90 -1 -90 -60 1 c-131 2 -360 15 -366 22 -4 4 -18 27 -32 52 l-25
45 86 132 c48 72 98 143 111 157 l25 26 34 -32 c19 -18 78 -76 132 -128z m960
-15 c30 -1 58 -3 61 -4 3 0 14 -18 23 -39 l17 -38 -47 -82 c-47 -81 -49 -82
-89 -83 -22 -1 -62 -3 -90 -4 -61 -4 -254 -8 -277 -6 -15 1 -17 17 -17 137 l0
136 182 -7 c100 -4 207 -8 237 -10z m158 -189 c18 -30 18 -35 5 -40 -18 -7
-63 -8 -63 -1 0 6 33 75 36 75 1 0 11 -15 22 -34z m-2412 -1 c44 -8 88 -17 99
-19 11 -2 45 -7 75 -12 30 -4 57 -8 60 -9 3 0 26 -4 53 -9 26 -4 47 -9 47 -10
0 -2 -50 -88 -111 -192 -61 -104 -120 -205 -131 -224 -11 -19 -59 -100 -106
-180 -47 -80 -123 -210 -169 -290 l-83 -145 43 -6 c23 -4 130 -7 238 -8 l197
-2 19 28 c17 24 324 538 357 598 6 11 58 98 115 193 l104 173 54 -4 c29 -2 59
-10 68 -17 8 -7 48 -62 87 -124 103 -157 230 -345 308 -454 l67 -93 -1 -150
-1 -149 63 0 c34 0 62 -3 62 -7 -1 -5 -23 -33 -50 -63 -28 -30 -76 -85 -108
-121 -63 -74 -361 -372 -432 -433 -229 -198 -508 -358 -695 -401 -187 -42
-362 26 -460 180 -49 77 -97 219 -110 325 -3 19 -7 57 -11 84 -12 101 -6 436
11 561 24 175 32 225 59 360 22 107 56 247 131 530 20 78 34 105 56 105 9 0
52 -7 95 -15z m3372 -70 c87 -299 146 -563 187 -835 38 -251 40 -584 5 -771
-46 -244 -193 -429 -360 -454 -77 -11 -112 -12 -169 -3 -307 47 -739 361
-1186 863 -44 49 -95 106 -112 125 l-33 35 68 3 67 3 -2 149 c-2 142 0 152 21
178 12 15 29 38 39 52 9 14 33 48 52 75 56 78 278 414 309 467 33 57 31 56 87
62 116 14 121 13 139 -19 16 -29 124 -238 303 -585 49 -96 109 -212 133 -257
l44 -81 107 -2 c229 -5 339 -6 355 -2 16 4 14 11 -16 66 -18 33 -58 108 -89
166 -31 58 -139 256 -241 440 l-184 335 26 7 c15 4 72 14 127 22 100 16 125
20 200 36 22 5 54 8 70 7 29 -2 31 -6 53 -82z m-2498 35 c0 -5 -5 -10 -11 -10
-5 0 -7 5 -4 10 3 6 8 10 11 10 2 0 4 -4 4 -10z m517 -376 c0 -151 -2 -272 -6
-270 -3 2 -29 37 -56 78 -27 40 -53 78 -58 83 -17 22 -131 191 -142 210 -6 11
-32 52 -58 92 -26 39 -47 73 -47 75 0 2 82 4 183 4 l183 1 1 -273z m786 227
c-37 -64 -256 -390 -319 -476 l-22 -29 0 275 0 275 184 1 184 0 -27 -46z"/>
<path d="M1960 5871 c-72 -23 -160 -90 -160 -123 0 -26 23 -68 52 -95 99 -92
316 -64 371 49 17 34 17 39 3 67 -40 76 -179 129 -266 102z"/>
<path d="M4920 5871 c-84 -27 -160 -89 -160 -131 0 -37 60 -104 112 -125 143
-58 354 39 317 145 -27 77 -180 140 -269 111z"/>
</g>
</svg>
