<?xml version="1.0" encoding="UTF-8" standalone="no"?>
<!-- Created with Inkscape (http://www.inkscape.org/) -->

<svg
   width="1500"
   height="1500"
   viewBox="0 0 396.875 396.875"
   version="1.1"
   id="svg5"
   inkscape:version="1.1 (c68e22c387, 2021-05-23)"
   sodipodi:docname="logo.svg"
   xmlns:inkscape="http://www.inkscape.org/namespaces/inkscape"
   xmlns:sodipodi="http://sodipodi.sourceforge.net/DTD/sodipodi-0.dtd"
   xmlns="http://www.w3.org/2000/svg"
   xmlns:svg="http://www.w3.org/2000/svg">
  <sodipodi:namedview
     id="namedview7"
     pagecolor="#505050"
     bordercolor="#eeeeee"
     borderopacity="1"
     inkscape:pageshadow="0"
     inkscape:pageopacity="0"
     inkscape:pagecheckerboard="0"
     inkscape:document-units="mm"
     showgrid="false"
     inkscape:zoom="0.5"
     inkscape:cx="859"
     inkscape:cy="713"
     inkscape:window-width="1920"
     inkscape:window-height="1057"
     inkscape:window-x="-8"
     inkscape:window-y="-8"
     inkscape:window-maximized="1"
     inkscape:current-layer="layer1"
     height="210mm"
     width="1500px"
     units="px" />
  <defs
     id="defs2">
    <rect
       x="276.76804"
       y="532.93939"
       width="1.2872932"
       height="64.364662"
       id="rect34811" />
  </defs>
  <g
     inkscape:label="Layer 1"
     inkscape:groupmode="layer"
     id="layer1">
    <text
       xml:space="preserve"
       transform="scale(0.26458333)"
       id="text34809"
       style="font-style:normal;font-weight:normal;font-size:40px;line-height:1.25;font-family:sans-serif;white-space:pre;shape-inside:url(#rect34811);fill:#000000;fill-opacity:1;stroke:none" />
    <path
       style="fill:#ffffff;stroke-width:1.53697"
       d="m 92,319.98508 c 0,-0.51401 13.21801,-23.24984 29.37328,-50.52327 16.15529,-27.27397 29.54281,-50.2606 29.75002,-51.08183 0.20709,-0.82103 -11.59318,-17.71854 -26.22323,-37.54945 C 110.27006,160.99921 97.15176,143.0248 95.74838,140.88674 l -2.55163,-3.88673 h 13.30485 13.30485 l 25.6671,35.0122 c 14.11687,19.25683 28.49293,38.99824 31.94674,43.87018 3.45381,4.87153 6.75219,8.85798 7.32969,8.85849 0.57754,5.1e-4 1.05004,-14.04645 1.05004,-31.21517 v -31.2158 H 162.70003 139.59997 V 149.65492 137 h 58.73047 c 45.7288,0 58.97834,0.47138 59.84994,2.12744 0.61572,1.1702 4.40895,3.94735 8.42926,6.17138 14.42507,7.98012 21.42761,20.49528 22.49538,40.20448 0.39455,7.28942 -0.0579,15.3306 -1.12392,19.91538 -2.33966,10.07162 -12.25185,23.27722 -21.87376,29.14121 l -7.49104,4.56526 21.69202,39.19383 C 292.2388,299.87543 302,317.9273 302,318.43409 c 0,0.50637 -6.12801,0.70366 -13.61786,0.43783 l -13.61786,-0.48404 -18.2808,-35.43408 -18.28062,-35.43389 -13.60143,-0.4844 -13.60145,-0.48353 v 37.18294 37.18229 h -12.59996 -12.6 v -34.43312 -34.43334 l -6.6501,-6.61992 c -3.65742,-3.64107 -7.37674,-7.12823 -8.26482,-7.74904 -1.00934,-0.7057 -10.98691,14.67364 -26.59996,41.00146 l -24.9851,42.13081 -13.65002,0.0584 C 98.14247,320.91236 92,320.50334 92,319.98881 Z m 154.85246,-99.4222 c 11.77482,-4.21446 17.34758,-13.93898 17.34758,-30.27193 0,-11.04241 -3.96939,-18.95645 -11.91853,-23.7627 -4.50875,-2.72612 -9.01216,-3.48154 -23.43156,-3.93059 l -17.8499,-0.55565 v 30.50614 30.50625 h 14.4458 c 8.66244,0 17.2327,-0.99746 21.40661,-2.49152 z"
       id="path77265" />
    <path
       style="fill:#ffffff;stroke-width:1.17138"
       d="m 137.75192,127.20826 c -0.34351,-0.64672 -3.55397,-10.27167 -7.1342,-21.38878 -6.47214,-20.097566 -6.57888,-21.582954 -1.55445,-21.629983 0.84448,-0.0079 6.32745,3.802662 12.18393,8.468143 l 10.64822,8.48278 5.32081,-2.07898 c 2.9264,-1.14342 6.39076,-2.4911 7.69851,-2.99481 1.94532,-0.74924 2.568,-3.4611 3.42469,-14.918867 l 1.04732,-14.003138 5.82846,0.284701 5.82859,0.284737 6.49875,13.097226 c 3.57436,7.203602 6.83378,13.446861 7.24336,13.874221 1.06478,1.11081 6.99843,0.95998 8.83565,-0.22451 0.85398,-0.5508 4.42565,-6.919452 7.93678,-14.152449 l 6.38348,-13.150761 5.84825,0.278214 5.84826,0.278177 0.92835,13.485176 c 0.51037,7.416733 1.49516,13.815443 2.18801,14.219323 0.69292,0.4039 4.21379,1.82283 7.82404,3.15333 l 6.56435,2.41893 10.63345,-8.408 c 5.84824,-4.624291 11.09979,-8.40146 11.6698,-8.393384 5.80609,0.08134 5.17614,3.706078 -6.57617,37.845264 l -2.1857,6.34927 h -61.15399 c -47.61746,0 -61.29218,-0.26018 -61.77854,-1.1758 z"
       id="path77304" />
    <path
       style="fill:#ffffff;stroke-width:0.572892"
       d="M 105.67675,382.79083 C 80.123686,375.31736 75.541642,332.68997 93.304976,267.69496 c 1.739975,-6.36641 3.115399,-11.60843 3.056498,-11.64878 -0.0589,-0.0416 -2.933794,-0.71908 -6.388658,-1.5081 C 62.040397,248.15792 33.934492,236.06883 18.765233,223.90961 9.7470706,216.68087 3.1996779,207.84559 0.93275554,199.84569 -0.30153871,195.48991 -0.31233118,188.16031 0.90921416,183.85198 6.0487902,165.72465 28.461718,148.75925 63.014408,136.84178 c 9.161646,-3.16009 17.970614,-5.72872 26.434949,-7.70858 3.166958,-0.74083 6.030966,-1.45396 6.364461,-1.58476 0.402796,-0.15797 -0.505053,-4.30352 -2.704341,-12.34893 C 81.417261,72.427154 79.445899,38.798246 87.463032,18.878319 89.856326,12.931772 95.346903,6.0145962 99.666042,3.5046334 119.72669,-8.1531409 153.03021,10.407974 190.70029,54.240913 l 7.71217,8.973847 3.09952,-3.78279 c 5.66197,-6.910112 18.04183,-20.207731 25.02403,-26.879135 34.44069,-32.90762824 62.35516,-41.2940351 77.22768,-23.2016792 12.47256,15.1728292 13.79794,47.3497832 3.74484,90.9157842 -1.75588,7.60921 -5.79321,22.67873 -7.07414,26.4044 -0.27789,0.80817 0.10547,1.09639 1.90549,1.4331 4.51358,0.84423 19.20871,4.92733 27.38153,7.60797 36.49593,11.97025 59.90979,28.76922 65.9128,47.29082 2.18082,6.72866 1.44815,15.45532 -1.89277,22.54466 -2.28674,4.85231 -10.22892,14.15425 -15.8164,18.5242 -13.66245,10.68582 -33.26034,19.79408 -58.00019,26.95649 -5.26546,1.5242 -11.69357,3.25489 -14.28472,3.84568 -2.59116,0.59055 -4.79603,1.15643 -4.89975,1.25718 -0.10361,0.10198 1.26358,5.45537 3.03845,11.89903 7.67708,27.87211 10.9346,49.85734 10.34076,69.79073 -0.43417,14.57328 -2.30635,23.00292 -7.00924,31.56018 -2.68347,4.88295 -5.26939,7.71465 -9.52568,10.43196 -19.62925,12.53131 -53.29649,-6.01817 -91.67984,-50.51224 l -7.32299,-8.48889 -5.62769,6.50273 c -14.37101,16.60598 -24.18271,26.33306 -36.50137,36.18675 -13.01194,10.40837 -24.8674,16.90194 -35.16858,19.26248 -4.68554,1.07373 -11.98443,1.08633 -15.60745,0.0274 z m 12.82684,-3.50473 c 13.17267,-2.28346 31.43872,-13.59452 48.68021,-30.14523 7.3779,-7.08232 17.47347,-17.95514 23.97122,-25.817 l 4.86477,-5.88575 -4.51614,-5.86939 c -9.17108,-11.91926 -19.61373,-26.97325 -27.94986,-40.29231 -2.38483,-3.8104 -4.1845,-6.11311 -4.77765,-6.11311 -6.13531,0 -37.90763,-4.18325 -50.35528,-6.63014 -6.3025,-1.23885 -7.98862,-1.39114 -8.33693,-0.75297 -0.957435,1.7539 -6.870954,24.59564 -8.810047,34.02979 -3.893058,18.94072 -5.252829,33.27242 -4.610284,48.59126 0.778678,18.56426 5.773747,30.78105 14.735601,36.04004 5.35695,3.14336 10.47302,3.99417 17.10439,2.84481 z m 173.41312,-1.04783 c 7.85844,-2.75052 14.29167,-11.79022 16.83773,-23.65935 3.2952,-15.36145 2.07703,-38.40667 -3.39058,-64.14308 -2.20922,-10.399 -8.14516,-32.56263 -8.86343,-33.09425 -0.24656,-0.18235 -3.23774,0.22631 -6.64705,0.90829 -12.43185,2.48742 -29.72253,4.86423 -48.33766,6.64441 l -4.44944,0.42542 -5.60046,8.88185 c -6.78776,10.76453 -17.23002,25.85377 -24.27252,35.07401 -2.85955,3.74384 -5.4301,7.19368 -5.7124,7.66629 -0.62465,1.04593 0.98893,3.0964 12.17553,15.47202 24.94783,27.59894 47.70018,43.95403 65.18168,46.85461 4.008,0.66497 9.46335,0.23505 13.0786,-1.03022 z m -89.27234,-69.34323 c 7.86879,-10.21848 22.63663,-31.57706 27.6863,-40.04231 l 1.63975,-2.749 h -33.63024 -33.63027 l 4.77035,7.46154 c 9.56947,14.96816 28.18375,40.82945 29.06143,40.37544 0.19839,-0.10384 2.04464,-2.37301 4.10268,-5.04567 z m 26.66338,-47.27388 5.85156,-0.40623 6.24541,-10.72221 c 3.43494,-5.89716 7.61069,-13.26139 9.27941,-16.3651 8.46763,-15.74858 20.66906,-40.71551 20.66906,-42.29335 0,-0.46902 -1.69101,-4.40556 -3.75781,-8.74774 -8.91316,-18.7264 -17.08906,-34.23256 -27.01623,-51.23816 l -5.53746,-9.48591 -9.98043,-0.46184 c -12.81755,-0.59315 -41.2605,-0.58807 -53.59276,0.0102 l -9.58708,0.46458 -2.0763,3.36634 c -3.44044,5.57805 -14.71595,25.72823 -19.07533,34.08906 -4.72664,9.06511 -15.42313,31.30078 -15.42313,32.06141 0,0.70135 8.74387,18.89801 14.31583,29.79226 4.46789,8.73563 13.64302,25.36346 19.21925,34.83046 l 2.84569,4.83127 2.87905,0.10727 c 1.58347,0.0589 7.11911,0.32482 12.3014,0.59221 10.03038,0.5175 42.68799,0.25421 52.43987,-0.42284 z m -72.59323,-1.18693 c 0,-0.18736 -0.90581,-1.8095 -2.01288,-3.60535 -6.64518,-10.7784 -20.35318,-36.67852 -29.39013,-55.52993 l -2.21209,-4.6144 -2.10956,4.6144 c -5.96902,13.05675 -19.9221,50.71559 -19.13853,51.65407 1.34853,1.61536 54.86319,8.91237 54.86319,7.48121 z m 103.3842,-1.60562 c 10.31733,-1.22545 31.30011,-4.59836 33.92194,-5.45311 l 1.34458,-0.43834 -2.74754,-8.15065 c -1.51115,-4.48299 -4.12005,-11.81874 -5.7976,-16.30171 -3.28301,-8.77339 -12.72334,-31.66259 -13.05872,-31.66259 -0.11233,0 -1.567,2.89197 -3.2331,6.42661 -6.10624,12.95454 -13.65912,27.47976 -22.04982,42.40508 l -8.5946,15.28802 4.87277,-0.43489 c 2.68004,-0.23934 9.58398,-0.99458 15.34209,-1.67842 z M 100.4392,244.31612 c 3.74923,-11.35451 9.37726,-26.15587 15.24665,-40.09739 l 5.20079,-12.35353 -5.46049,-13.03925 c -6.01896,-14.37302 -11.10277,-27.7591 -15.03173,-39.58006 l -2.56964,-7.7312 -2.093855,0.38531 c -1.151623,0.21172 -6.867931,1.65446 -12.702902,3.20597 -26.011864,6.91633 -48.078907,16.79166 -61.865165,27.68566 -6.497705,5.13462 -13.180097,13.30051 -15.326403,18.72889 -1.5805305,3.9976 -1.7112978,4.81025 -1.7054391,10.59932 0.00597,5.85646 0.1194951,6.53034 1.7233788,10.22307 6.2401153,14.36711 25.4692853,28.36235 53.0377733,38.60157 11.542779,4.28711 34.120606,10.88478 37.663122,11.00606 1.245095,0.0435 1.541136,-0.53943 3.88391,-7.63442 z m 207.92627,5.76565 c 36.87801,-9.11835 63.51102,-22.31572 76.33688,-37.82673 4.85372,-5.86991 7.20717,-10.72802 8.14246,-16.80786 2.13536,-13.88082 -7.57894,-27.70374 -28.31498,-40.29046 -9.81254,-5.95617 -26.37008,-12.91437 -41.69905,-17.52388 -11.05772,-3.32508 -23.26082,-6.21088 -23.733,-5.61208 -0.23246,0.29463 -1.65843,4.20363 -3.16882,8.68652 -4.0839,12.12156 -9.93959,27.44512 -15.27135,39.96277 l -4.73706,11.12161 5.26002,12.39021 c 6.99594,16.47939 12.54859,31.25776 17.43519,46.40401 0.25035,0.77599 0.80405,1.41079 1.23044,1.41079 0.42643,0 4.26009,-0.86156 8.51927,-1.9149 z M 125.61276,181.92595 c 6.96088,-15 20.59442,-40.88947 28.08056,-53.32395 1.72467,-2.86465 3.02696,-5.3388 2.89398,-5.49809 -0.6761,-0.80978 -32.95892,3.30515 -47.67662,6.07705 -8.53064,1.6067 -8.13127,-0.0719 -3.29201,13.8335 6.50648,18.69543 16.80231,44.04868 17.63705,43.43073 0.21761,-0.1609 1.27828,-2.19465 2.35704,-4.51924 z m 154.30407,-9.43233 c 3.25171,-7.86309 7.68656,-19.36048 9.85526,-25.5495 5.61357,-16.02018 5.78208,-16.58206 4.97289,-16.58206 -0.37351,0 -4.435,-0.69777 -9.02549,-1.55061 -13.80287,-2.5644 -44.97508,-6.51225 -45.59144,-5.774 -0.0962,0.11519 1.39653,2.86843 3.31719,6.11829 8.18408,13.84768 21.50519,39.13944 28.12711,53.40258 1.08064,2.32771 2.07,4.23209 2.19853,4.23209 0.12886,0 2.89421,-6.43348 6.14595,-14.29679 z M 111.48972,124.45243 c 13.16035,-2.34123 42.32869,-6.00301 47.81791,-6.00301 0.21405,0 2.95353,-4.02051 6.08772,-8.93448 9.08114,-14.23793 18.97473,-28.304208 27.40859,-38.968354 l 3.42255,-4.327587 -7.32372,-8.444325 C 175.76847,42.630645 166.11859,33.099672 154.26934,23.56801 138.44466,10.838468 124.58704,4.3529481 113.19126,4.3430297 99.696391,4.3312588 91.832717,12.462795 88.031319,30.359908 c -1.084418,5.105457 -1.196591,7.040944 -1.180841,20.375427 0.01476,12.347327 0.20726,16.0544 1.189448,22.884852 2.08502,14.499887 6.933384,36.018943 11.206736,49.740153 0.891478,2.86243 1.202998,3.29609 2.165298,3.01423 0.6182,-0.18108 5.15319,-1.04604 10.07776,-1.92214 z m 188.46499,-9.69315 C 307.83937,86.47519 311.5701,59.842227 310.1797,41.764227 308.74151,23.06475 304.09677,12.382785 295.08415,7.0476512 291.41226,4.8740265 290.79755,4.7123213 285.23758,4.4574096 280.85943,4.2566868 278.23221,4.4685463 275.19944,5.2662074 256.1542,10.276438 231.048,30.101821 207.01238,59.110813 l -5.97453,7.210802 2.04857,2.821039 c 1.12667,1.551581 4.54005,6.156262 7.58524,10.232606 6.79854,9.100728 13.76332,19.23839 20.5988,29.98294 2.85201,4.48291 5.33258,8.36 5.51244,8.61576 0.17974,0.25576 4.91062,0.89985 10.51275,1.4313 12.96208,1.22964 30.08455,3.64531 39.49978,5.57267 4.03066,0.82511 7.91736,1.45714 8.63714,1.4045 1.2183,-0.0891 1.53052,-0.89169 4.52214,-11.62315 z m -72.25019,-4.06966 C 219.73394,98.168098 203.79115,75.687783 199.49849,70.91742 l -1.30374,-1.448799 -6.03473,8.032124 c -9.18046,12.219169 -27.07007,38.589025 -27.07007,39.902175 0,0.16155 11.01238,0.16577 24.47196,0.01 13.45955,-0.15639 28.47645,-0.0517 33.37083,0.23288 4.89442,0.28447 8.99413,0.44424 9.1105,0.35503 0.11656,-0.0892 -1.83607,-3.37894 -4.33872,-7.3106 z"
       id="path77343" />
    <path
       style="fill:#ffffff;stroke-width:1.17138"
       d="m 217.9023,54.588145 c -5.90274,-3.80614 -4.72635,-9.943117 2.35853,-12.305622 6.12106,-2.041053 9.8433,-1.690792 14.59526,1.373371 5.53296,3.567783 5.53296,6.923797 0,10.491528 -5.44053,3.508161 -11.93507,3.677017 -16.95379,0.440723 z"
       id="path77382" />
    <path
       style="fill:#ffffff;stroke-width:1.17138"
       d="m 275.46194,78.266154 c -3.13993,-1.554417 -5.70846,-4.82594 -5.70846,-7.270401 0,-2.771863 7.68393,-7.514434 12.17489,-7.514434 5.95364,0 12.62334,4.291124 12.62334,8.121617 0,6.11471 -11.84624,10.249436 -19.08977,6.663218 z"
       id="path77421" />
    <path
       style="fill:#ffffff;stroke-width:1.17138"
       d="m 162.8976,55.03059 c -10.213,-5.180295 -2.96574,-15.266344 9.85511,-13.715399 9.85941,1.192681 13.46158,9.236005 5.99198,13.379096 -4.85712,2.694029 -10.94394,2.82323 -15.84709,0.336275 z"
       id="path77460" />
    <path
       style="fill:#ffffff;stroke-width:1.17138"
       d="M 107.7086,78.266154 C 104.56872,76.711737 102,73.440214 102,70.995753 c 0,-2.771863 7.68407,-7.514434 12.17512,-7.514434 5.95372,0 12.62327,4.291124 12.62327,8.121617 0,6.11471 -11.8461,10.249436 -19.08979,6.663218 z"
       id="path77499" />
  </g>
</svg>
